<?xml version="1.0" encoding="UTF-8" standalone="no"?>
<svg width="24px" height="24px" viewBox="0 0 24 24" version="1.1" xmlns="http://www.w3.org/2000/svg" xmlns:xlink="http://www.w3.org/1999/xlink">
    <g stroke="none" stroke-width="1" fill="none" fill-rule="evenodd">
        <path d="M12,2 C17.5228,2 22,6.47715 22,12 C22,17.5228 17.5228,22 12,22 C6.47715,22 2,17.5228 2,12 C2,6.47715 6.47715,2 12,2 Z M12,4 C7.58172,4 4,7.58172 4,12 C4,16.0796 7.0602,19.446 11,19.9381 L11,14 L9,14 L9,12 L11,12 L11,10.5 C11,8.567 12.567,7 14.5,7 L15,7 L15,9 L14.5,9 C13.6716,9 13,9.67157 13,10.5 L13,12 L15,12 L15,14 L13,14 L13,19.9381 C16.9398,19.446 20,16.0796 20,12 C20,7.58172 16.4183,4 12,4 Z" fill="#FFFFFF"></path>
    </g>
</svg>
