<?xml version="1.0" encoding="UTF-8" standalone="no"?>
<svg width="24px" height="24px" viewBox="0 0 24 24" version="1.1" xmlns="http://www.w3.org/2000/svg" xmlns:xlink="http://www.w3.org/1999/xlink">
    <g stroke="none" stroke-width="1" fill="none" fill-rule="evenodd">
        <path d="M10,2 C11.8638,2 13.4299,3.27477 13.874,5 L20,5 C21.1046,5 22,5.89543 22,7 L22,9 C22,10.1046 21.1046,11 20,11 L13.874,11 C13.4299,12.7252 11.8638,14 10,14 C8.13616,14 6.57006,12.7252 6.126,11 L4,11 C2.89543,11 2,10.1046 2,9 L2,7 C2,5.89543 2.89543,5 4,5 L6.126,5 C6.57006,3.27477 8.13616,2 10,2 Z M4,7 L4,9 L6,9 C6,9.35063 6.06015,9.68722 6.17071,10 L4,10 L4,7 Z M10,4 C8.8954,4 8,4.89543 8,6 C8,7.10457 8.8954,8 10,8 C11.1046,8 12,7.10457 12,6 C12,4.89543 11.1046,4 10,4 Z M14,10 C14.1105,9.68722 14.1707,9.35063 14.1707,9 L20,9 L20,7 L14.1707,7 C14.1707,6.64937 14.1105,6.31278 14,6 L20,6 L20,10 L14,10 Z M14,18 C15.1046,18 16,17.1046 16,16 C16,14.8954 15.1046,14 14,14 C12.8954,14 12,14.8954 12,16 C12,17.1046 12.8954,18 14,18 Z M14,22 C12.1362,22 10.5701,20.7252 10.126,19 L4,19 C2.89543,19 2,18.1046 2,17 L2,15 C2,13.8954 2.89543,13 4,13 L10.126,13 C10.5701,11.2748 12.1362,10 14,10 C15.8638,10 17.4299,11.2748 17.874,13 L20,13 C21.1046,13 22,13.8954 22,15 L22,17 C22,18.1046 21.1046,19 20,19 L17.874,19 C17.4299,20.7252 15.8638,22 14,22 Z M4,15 L4,17 L10,17 C10,17.3506 10.0601,17.6872 10.1707,18 L4,18 L4,15 Z M14,12 C12.8954,12 12,12.8954 12,14 C12,15.1046 12.8954,16 14,16 C15.1046,16 16,15.1046 16,14 C16,12.8954 15.1046,12 14,12 Z M18,18 C18.1105,17.6872 18.1707,17.3506 18.1707,17 L20,17 L20,15 L18.1707,15 C18.1707,14.6494 18.1105,14.3128 18,14 L20,14 L20,18 L18,18 Z" fill="#FFFFFF"></path>
    </g>
</svg>
