<?xml version="1.0" encoding="UTF-8" standalone="no"?>
<svg width="24px" height="24px" viewBox="0 0 24 24" version="1.1" xmlns="http://www.w3.org/2000/svg" xmlns:xlink="http://www.w3.org/1999/xlink">
    <g stroke="none" stroke-width="1" fill="none" fill-rule="evenodd">
        <path d="M7,3 C8.86384,3 10.4299,4.27477 10.874,6 L19,6 C20.1046,6 21,6.89543 21,8 L21,16 C21,17.1046 20.1046,18 19,18 L10.874,18 C10.4299,19.7252 8.86384,21 7,21 C4.79086,21 3,19.2091 3,17 C3,14.7909 4.79086,13 7,13 C8.86384,13 10.4299,14.2748 10.874,16 L19,16 L19,8 L10.874,8 C10.4299,9.72523 8.86384,11 7,11 C4.79086,11 3,9.20914 3,7 C3,4.79086 4.79086,3 7,3 Z M7,15 C5.8954,15 5,15.8954 5,17 C5,18.1046 5.8954,19 7,19 C8.1046,19 9,18.1046 9,17 C9,15.8954 8.1046,15 7,15 Z M7,5 C5.8954,5 5,5.89543 5,7 C5,8.10457 5.8954,9 7,9 C8.1046,9 9,8.10457 9,7 C9,5.89543 8.1046,5 7,5 Z" fill="#FFFFFF"></path>
    </g>
</svg>
