<?xml version="1.0" encoding="UTF-8" standalone="no"?>
<svg width="24px" height="24px" viewBox="0 0 24 24" version="1.1" xmlns="http://www.w3.org/2000/svg" xmlns:xlink="http://www.w3.org/1999/xlink">
    <g stroke="none" stroke-width="1" fill="none" fill-rule="evenodd">
        <path d="M12,2 C14.717,2 15.056,2.01 16.122,2.06 C17.187,2.11 17.912,2.277 18.55,2.525 C19.21,2.779 19.766,3.123 20.322,3.678 C20.8305,4.1779 21.224,4.78259 21.475,5.45 C21.722,6.087 21.89,6.813 21.94,7.878 C21.987,8.944 22,9.283 22,12 C22,14.717 21.99,15.056 21.94,16.122 C21.89,17.187 21.722,17.912 21.475,18.55 C21.2247,19.2178 20.8311,19.8226 20.322,20.322 C19.822,20.8303 19.2173,21.2238 18.55,21.475 C17.913,21.722 17.187,21.89 16.122,21.94 C15.056,21.987 14.717,22 12,22 C9.283,22 8.944,21.99 7.878,21.94 C6.813,21.89 6.088,21.722 5.45,21.475 C4.78233,21.2245 4.17753,20.8309 3.678,20.322 C3.16941,19.8222 2.77593,19.2175 2.525,18.55 C2.277,17.913 2.11,17.187 2.06,16.122 C2.013,15.056 2,14.717 2,12 C2,9.283 2.01,8.944 2.06,7.878 C2.11,6.812 2.277,6.088 2.525,5.45 C2.77524,4.78218 3.1688,4.17732 3.678,3.678 C4.17767,3.16923 4.78243,2.77573 5.45,2.525 C6.088,2.277 6.812,2.11 7.878,2.06 C8.944,2.013 9.283,2 12,2 Z M12,4 C9.33,4 9.02,4.01 7.967,4.058 C6.99,4.102 6.45,4.262 6.101,4.397 C5.652,4.571 5.331,4.781 4.995,5.117 C4.66,5.453 4.45,5.774 4.275,6.223 C4.14,6.572 3.98,7.112 3.936,8.089 C3.888,9.142 3.878,9.452 3.878,12.122 C3.878,14.792 3.888,15.102 3.936,16.155 C3.98,17.132 4.14,17.672 4.275,18.021 C4.45,18.47 4.66,18.791 4.995,19.127 C5.331,19.463 5.652,19.673 6.101,19.847 C6.45,19.982 6.99,20.142 7.967,20.186 C9.02,20.234 9.33,20.244 12,20.244 C14.67,20.244 14.98,20.234 16.033,20.186 C17.01,20.142 17.55,19.982 17.899,19.847 C18.348,19.673 18.669,19.463 19.005,19.127 C19.341,18.791 19.551,18.47 19.725,18.021 C19.86,17.672 20.02,17.132 20.064,16.155 C20.112,15.102 20.122,14.792 20.122,12.122 C20.122,9.452 20.112,9.142 20.064,8.089 C20.02,7.112 19.86,6.572 19.725,6.223 C19.551,5.774 19.341,5.453 19.005,5.117 C18.669,4.781 18.348,4.571 17.899,4.397 C17.55,4.262 17.01,4.102 16.033,4.058 C14.98,4.01 14.67,4 12,4 Z M12,7 C12.7956,7 13.5587,7.31607 14.1213,7.87868 C14.6839,8.44129 15,9.20435 15,10 C15,10.7956 14.6839,11.5587 14.1213,12.1213 C13.5587,12.6839 12.7956,13 12,13 C11.2044,13 10.4413,12.6839 9.87868,12.1213 C9.31607,11.5587 9,10.7956 9,10 C9,9.20435 9.31607,8.44129 9.87868,7.87868 C10.4413,7.31607 11.2044,7 12,7 Z M12,9 C11.6022,9 11.2206,9.15804 10.9393,9.43934 C10.658,9.72064 10.5,10.1022 10.5,10.5 C10.5,10.8978 10.658,11.2794 10.9393,11.5607 C11.2206,11.842 11.6022,12 12,12 C12.3978,12 12.7794,11.842 13.0607,11.5607 C13.342,11.2794 13.5,10.8978 13.5,10.5 C13.5,10.1022 13.342,9.72064 13.0607,9.43934 C12.7794,9.15804 12.3978,9 12,9 Z M16.5,6.75 C16.5,6.33579 16.8358,6 17.25,6 C17.6642,6 18,6.33579 18,6.75 C18,7.16421 17.6642,7.5 17.25,7.5 C16.8358,7.5 16.5,7.16421 16.5,6.75 Z" fill="#FFFFFF"></path>
    </g>
</svg>
