<?xml version="1.0" encoding="UTF-8" standalone="no"?>
<svg width="24px" height="24px" viewBox="0 0 24 24" version="1.1" xmlns="http://www.w3.org/2000/svg" xmlns:xlink="http://www.w3.org/1999/xlink">
    <g stroke="none" stroke-width="1" fill="none" fill-rule="evenodd">
        <path d="M19,3 C19.5523,3 20,3.44772 20,4 L20,20 C20,20.5523 19.5523,21 19,21 L5,21 C4.44772,21 4,20.5523 4,20 L4,4 C4,3.44772 4.44772,3 5,3 L19,3 Z M18,19 L18,13.7C18,12.1 17.3,10.9 15.5,10.9 C14.6,10.9 14,11.3 13.7,11.7 L13.7,11 L12,11 L12,19 L13.7,19 L13.7,14.1 C13.7,13.3 13.9,12.5 14.9,12.5 C15.9,12.5 16,13.5 16,14.1 L16,19 L18,19 Z M6.9,8.2 C7.4,8.2 7.9,7.7 7.9,7.2 C7.9,6.7 7.4,6.2 6.9,6.2 C6.4,6.2 5.9,6.7 5.9,7.2 C5.9,7.7 6.4,8.2 6.9,8.2 Z M7.8,19 L7.8,11 L6,11 L6,19 L7.8,19 Z" fill="#FFFFFF"></path>
    </g>
</svg>
